<?xml version="1.0" encoding="UTF-8"?>
<svg id="Capa_1" data-name="Capa 1" xmlns="http://www.w3.org/2000/svg" viewBox="0 0 16 16">
  <defs>
    <style>
      .cls-1 {
        fill: #257f4a;
        stroke-width: 0px;
      }
    </style>
  </defs>
  <path class="cls-1" d="m6.69,6.67c0-1.99,0-3.98,0-5.97,0-.14.03-.21.19-.22.58-.05,1.15-.13,1.73-.17.53-.03,1.06-.05,1.59-.03.81.02,1.6.15,2.34.52,1.04.52,1.65,1.36,1.8,2.52.1.75.05,1.49-.23,2.2-.35.89-1,1.49-1.85,1.89-.88.42-1.82.56-2.79.53-.35,0-.71-.05-1.06-.08-.12-.01-.13.04-.13.13,0,.35,0,.7,0,1.05,0,1.2,0,2.41,0,3.61q0,.21-.21.21c-.39,0-.78,0-1.17,0-.15,0-.2-.03-.2-.2,0-2,0-4,0-6Zm1.58-2.57c0,.76,0,1.52,0,2.28,0,.14.05.2.18.22.73.12,1.46.14,2.19,0,1.28-.26,2.04-1.09,2.14-2.33.1-1.31-.49-2.22-1.7-2.57-.89-.26-1.79-.2-2.69-.07-.12.02-.13.09-.13.19,0,.76,0,1.52,0,2.28Z"/>
  <path class="cls-1" d="m12.07,10.3c-.46-.26-.92-.38-1.41-.35-.23.01-.44.07-.62.21-.44.32-.48.97-.04,1.3.24.18.53.29.8.43.35.18.72.32,1.04.53,1.1.71.96,2.46-.26,3.04-.51.24-1.04.29-1.59.28-1.53-.04-2.71-.76-3.61-1.95-.89-1.17-1.55-2.46-1.92-3.89-.03-.14-.12-.26-.2-.38-.4-.61-.9-1.1-1.57-1.42-.06-.03-.12-.05-.19-.05.52.37,1.05.73,1.4,1.3-.49.16-1.09,0-1.32-.45-.09-.17-.21-.33-.32-.49-.09-.13-.17-.26-.28-.37-.1-.11-.23-.2-.37-.32.11-.02.21-.04.31-.05.5-.04.98-.05,1.44.21.45.26.71.64.74,1.15.01.22.17.31.3.45.03-.31.13-.6-.02-.91-.46-.97-.24-1.85.59-2.55.42-.35.89-.61,1.39-.82.05-.02.1-.03.19-.06-.04.08-.07.12-.1.17-.18.3-.28.63-.29.98-.02.36-.05.72-.03,1.08.04.9-.56,1.28-1.13,1.42-.04.01-.09.02-.16.03.09-.94.37-1.79.79-2.62-.04.04-.09.08-.12.13-.6.82-.88,1.74-.87,2.76.02,1.14.43,2.15,1.07,3.07.58.83,1.24,1.58,2.11,2.12.78.49,1.64.69,2.56.63.19-.01.39-.06.56-.14.64-.29.75-1.13.19-1.56-.23-.18-.51-.28-.77-.42-.35-.18-.72-.31-1.04-.53-1.12-.77-.83-2.29.19-2.83.9-.48,1.82-.39,2.72.02.04.02.08.09.07.13-.07.24-.16.48-.25.73Z"/>
  <path class="cls-1" d="m3.72,7.67c-.5.08-1-.18-1.14-.52-.2-.49-.37-.99-.56-1.48-.03-.07-.03-.15-.05-.25.44.13.85.27,1.21.52.21.15.42.32.6.5.23.24.34.54.27.88-.02.1-.08.2-.13.31-.21-.32-.38-.62-.59-.9-.2-.28-.44-.52-.75-.7.47.48.9.99,1.13,1.64Z"/>
</svg>